<svg width="512" height="512" viewBox="0 0 512 512" fill="none" xmlns="http://www.w3.org/2000/svg">
    <rect width="512" height="512" fill="#007AFF"/>
    <path d="M156.726 329V183.818H218.271C231.617 183.818 242.898 186.267 252.116 191.165C261.333 196.063 268.278 202.864 272.952 211.569C277.626 220.241 279.963 230.124 279.963 241.219C279.963 252.347 277.609 262.264 272.901 270.969C268.193 279.641 261.179 286.392 251.859 291.222C242.539 296.052 231.19 298.467 217.81 298.467H180.388V268.395H213.495C220.884 268.395 226.941 267.267 231.667 265.011C236.393 262.723 239.831 259.456 241.982 255.21C244.166 250.932 245.258 246.011 245.258 240.449C245.258 234.854 244.166 229.933 241.982 225.688C239.831 221.409 236.376 218.142 231.616 215.887C226.856 213.599 220.765 212.455 213.341 212.455H190.714V329H156.726ZM305.145 329V183.818H397.543V212.455H339.133V240.449H393.588V269.087H339.133V300.363H398.004V329H305.145Z" fill="white"/>
</svg> 